{
  "accessors": [
    {
      "bufferView": 2,
      "componentType": 5126,
      "count": 4288,
      "max": [
        50.0,
        50.0,
        100.0
      ],
      "min": [
        -50.0,
        -50.0,
        0.2166881561279297
      ],
      "type": "VEC3"
    },
    {
      "bufferView": 2,
      "byteOffset": 51456,
      "componentType": 5126,
      "count": 4288,
      "max": [
        1.0,
        1.0,
        1.0
      ],
      "min": [
        -1.0,
        -1.0,
        -1.0
      ],
      "type": "VEC3"
    },
    {
      "bufferView": 1,
      "componentType": 5126,
      "count": 4288,
      "max": [
        1.0,
        0.971875011920929
      ],
      "min": [
        0.0,
        0.0
      ],
      "type": "VEC2"
    },
    {
      "bufferView": 0,
      "componentType": 5125,
      "count": 23808,
      "type": "SCALAR"
    }
  ],
  "asset": {
    "extras": {
      "author": "wit.felipeoliveira (https://sketchfab.com/wit.felipeoliveira)",
      "license": "CC-BY-4.0 (http://creativecommons.org/licenses/by/4.0/)",
      "source": "https://sketchfab.com/3d-models/esfera-2-ad8d20ce97034f68a3aebce36b7f0b90",
      "title": "Esfera_2"
    },
    "generator": "Sketchfab-16.82.0",
    "version": "2.0"
  },
  "bufferViews": [
    {
      "buffer": 0,
      "byteLength": 95232,
      "name": "floatBufferViews",
      "target": 34963
    },
    {
      "buffer": 0,
      "byteLength": 34304,
      "byteOffset": 95232,
      "byteStride": 8,
      "name": "floatBufferViews",
      "target": 34962
    },
    {
      "buffer": 0,
      "byteLength": 102912,
      "byteOffset": 129536,
      "byteStride": 12,
      "name": "floatBufferViews",
      "target": 34962
    }
  ],
  "buffers": [
    {
      "byteLength": 232448,
      "uri": "scene.bin"
    }
  ],
  "materials": [
    {
      "name": "Kenya",
      "pbrMetallicRoughness": {
        "baseColorFactor": [
          0.00851267213518434,
          0.004388124589104173,
          0.46989257502297477,
          1.0
        ],
        "metallicFactor": 0.0,
        "roughnessFactor": 0.2
      }
    }
  ],
  "meshes": [
    {
      "name": "Object_0",
      "primitives": [
        {
          "attributes": {
            "NORMAL": 1,
            "POSITION": 0,
            "TEXCOORD_0": 2
          },
          "indices": 3,
          "material": 0,
          "mode": 4
        }
      ]
    }
  ],
  "nodes": [
    {
      "children": [
        1
      ],
      "matrix": [
        1.0,
        0.0,
        0.0,
        0.0,
        0.0,
        2.220446049250313e-16,
        -1.0,
        0.0,
        0.0,
        1.0,
        2.220446049250313e-16,
        0.0,
        0.0,
        0.0,
        0.0,
        1.0
      ],
      "name": "Sketchfab_model"
    },
    {
      "children": [
        2
      ],
      "name": "root"
    },
    {
      "children": [
        3
      ],
      "matrix": [
        1.0,
        0.0,
        0.0,
        0.0,
        0.0,
        2.220446049250313e-16,
        1.0,
        0.0,
        0.0,
        -1.0,
        2.220446049250313e-16,
        0.0,
        0.0,
        0.0,
        0.0,
        1.0
      ],
      "name": "GLTF_SceneRootNode"
    },
    {
      "children": [
        4
      ],
      "matrix": [
        1.0,
        0.0,
        0.0,
        0.0,
        0.0,
        2.220446049250313e-16,
        -1.0,
        0.0,
        0.0,
        1.0,
        2.220446049250313e-16,
        0.0,
        0.0,
        0.0,
        0.0,
        1.0
      ],
      "name": "Sketchfab_model_0"
    },
    {
      "children": [
        5
      ],
      "name": "root_1"
    },
    {
      "children": [
        6
      ],
      "matrix": [
        1.0,
        0.0,
        0.0,
        0.0,
        0.0,
        2.220446049250313e-16,
        1.0,
        0.0,
        0.0,
        -1.0,
        2.220446049250313e-16,
        0.0,
        0.0,
        0.0,
        0.0,
        1.0
      ],
      "name": "GLTF_SceneRootNode_2"
    },
    {
      "children": [
        7
      ],
      "matrix": [
        0.0010000000474974513,
        0.0,
        -0.0,
        0.0,
        -0.0,
        0.0,
        -0.0010000000474974513,
        0.0,
        0.0,
        0.0010000000474974513,
        0.0,
        0.0,
        0.0,
        0.0,
        0.0,
        1.0
      ],
      "name": "Boolean_0_3"
    },
    {
      "children": [
        8
      ],
      "name": "Sphere_1_4"
    },
    {
      "children": [
        9
      ],
      "name": "Object_5_5"
    },
    {
      "mesh": 0,
      "name": "Object_9"
    }
  ],
  "scene": 0,
  "scenes": [
    {
      "name": "Sketchfab_Scene",
      "nodes": [
        0
      ]
    }
  ]
}
